<svg width="88" height="88" viewBox="0 0 88 88" fill="none" xmlns="http://www.w3.org/2000/svg">
<path d="M34.2046 88C31.5738 87.518 29.7694 85.909 28.3393 83.756C27.8182 82.971 27.2006 82.248 26.6336 81.4952C25.8577 80.4669 24.8247 79.9711 23.5414 79.9114C21.8266 79.8334 20.1049 79.7967 18.4015 79.5947C15.3346 79.232 12.9403 76.8885 12.3824 73.8312C12.0909 72.2268 11.82 70.6201 11.5422 69.0134C11.3448 67.8727 10.7457 67.0028 9.76085 66.4083C8.46383 65.6256 7.15073 64.8659 5.85141 64.0832C2.69265 62.1781 1.47368 58.9739 2.56869 55.446C3.00026 54.0528 3.44791 52.6665 3.90703 51.2824C4.32942 50.0062 4.20546 48.8173 3.47316 47.6719C2.67199 46.4187 1.89837 45.1471 1.13622 43.8709C-0.707157 40.7884 -0.28706 37.3845 2.2473 34.8367C3.25737 33.8222 4.26515 32.8031 5.30965 31.8253C6.39777 30.8062 6.81098 29.5851 6.67095 28.1115C6.52633 26.6012 6.40236 25.0864 6.35875 23.5715C6.25774 20.1653 8.16769 17.4959 11.4252 16.44C12.8117 15.9902 14.2052 15.5586 15.6101 15.173C17.0173 14.7851 17.9424 13.929 18.4865 12.5863C19.0214 11.2619 19.5999 9.95357 20.1898 8.64985C21.6475 5.42728 24.7834 3.79533 28.2681 4.44031C29.673 4.69967 31.0779 4.97051 32.4783 5.25742C33.7936 5.52827 34.969 5.28267 36.0158 4.41506C37.1177 3.50383 38.2357 2.60638 39.3559 1.71581C42.2094 -0.554224 45.7285 -0.574882 48.6004 1.6722C49.7505 2.57195 50.8822 3.49465 52.007 4.42424C53.0561 5.28956 54.2315 5.52597 55.5469 5.25513C56.9748 4.96133 58.4072 4.6882 59.842 4.41965C63.1201 3.80451 66.2927 5.40662 67.7137 8.4318C68.3817 9.85487 68.99 11.3055 69.6029 12.7538C70.1309 14.0001 71.0285 14.7805 72.3324 15.1501C73.8177 15.5701 75.2961 16.0154 76.7607 16.502C79.8161 17.5188 81.7192 20.1905 81.6503 23.4177C81.6182 24.9326 81.5057 26.4497 81.3473 27.9577C81.1797 29.5254 81.5792 30.8314 82.7729 31.8942C83.3927 32.445 83.9391 33.0785 84.5566 33.6317C86.2117 35.1075 87.5615 36.7693 88 39.0187C88 39.705 88 40.3936 88 41.0799C87.6327 42.0003 87.3458 42.9666 86.8752 43.8319C86.1543 45.1632 85.3233 46.4348 84.5084 47.7132C83.7967 48.831 83.6797 49.9993 84.086 51.2434C84.5382 52.6274 84.995 54.0115 85.4266 55.4047C86.5354 58.9808 85.3279 62.1574 82.1209 64.1015C80.8997 64.8429 79.6715 65.5774 78.4342 66.2912C77.3231 66.9339 76.6459 67.852 76.4393 69.1305C76.1891 70.6821 75.9388 72.236 75.6266 73.7761C75.0183 76.7784 73.2254 78.7408 70.248 79.4753C69.153 79.7462 67.9776 79.7048 66.839 79.7875C62.4475 80.1019 62.762 79.4799 59.8672 83.5058C58.3407 85.629 56.6396 87.4193 53.9744 87.9977C53.2306 87.9977 52.4845 87.9977 51.7408 87.9977C49.7849 87.1553 47.8153 86.3382 45.8732 85.4591C44.5853 84.8761 43.3664 84.9083 42.0785 85.4844C40.1066 86.368 38.0956 87.1645 36.1007 87.9977C35.4649 88 34.8358 88 34.2046 88ZM78.1908 24.1866C78.2918 21.5516 77.3943 20.2846 75.179 19.6006C73.8682 19.1967 72.5551 18.7996 71.2397 18.4094C69.0199 17.7506 67.4359 16.3712 66.5039 14.2503C65.8932 12.864 65.3078 11.4662 64.6857 10.0844C63.857 8.24818 62.2432 7.43565 60.2713 7.82584C58.8411 8.10816 57.4086 8.38819 55.9762 8.65903C53.8045 9.06989 51.8234 8.63378 50.0741 7.2658C48.947 6.38441 47.8405 5.47548 46.7248 4.57802C44.8378 3.05855 43.1689 3.04937 41.3003 4.55507C40.2512 5.39744 39.209 6.24899 38.1622 7.09365C36.3395 8.56722 34.2803 9.09973 31.9732 8.65215C30.5981 8.3836 29.2208 8.12882 27.8457 7.85798C25.7085 7.43335 24.1314 8.22982 23.2499 10.2083C22.6806 11.4891 22.125 12.7745 21.581 14.0644C20.6421 16.2862 19.0282 17.746 16.7097 18.4277C15.2841 18.8478 13.8608 19.2724 12.4444 19.7269C10.686 20.2915 9.71723 21.6388 9.7861 23.4751C9.8389 24.905 9.93531 26.335 10.0776 27.7581C10.3302 30.2875 9.60245 32.4427 7.77285 34.2216C6.74671 35.22 5.72516 36.2231 4.71279 37.2353C3.24819 38.6997 3.03929 40.3706 4.10445 42.1426C4.90103 43.467 5.72975 44.7707 6.52403 46.0951C7.64199 47.9657 7.89451 49.9534 7.24945 52.0398C6.79491 53.5134 6.30595 54.9801 5.84682 56.4537C5.22242 58.4574 5.83994 60.0664 7.63511 61.1475C8.98263 61.9577 10.3485 62.7404 11.6823 63.5759C13.5073 64.719 14.5656 66.3945 14.9466 68.5016C15.1992 69.9086 15.4287 71.3202 15.6606 72.7318C16.0394 75.0271 17.3524 76.1931 19.6756 76.2964C20.991 76.3538 22.3064 76.4295 23.6218 76.4777C25.9977 76.5672 27.9238 77.5289 29.3723 79.4248C30.2584 80.5863 31.1353 81.7522 32.0237 82.9114C33.2909 84.5617 34.9988 84.9886 36.8973 84.1233C38.1989 83.5311 39.4914 82.9228 40.7861 82.3169C42.8797 81.3368 44.9825 81.3047 47.0898 82.2641C48.4167 82.8678 49.7321 83.4989 51.059 84.1049C52.9988 84.9932 54.6929 84.5708 55.9991 82.8746C56.9243 81.6719 57.8218 80.4485 58.7631 79.2573C60.1794 77.4647 62.0573 76.5718 64.3345 76.4823C65.7647 76.4272 67.1948 76.3698 68.6227 76.2757C70.5809 76.1449 71.8641 75.0294 72.2475 73.1013C72.5436 71.614 72.7801 70.1175 73.028 68.6209C73.4068 66.3348 74.5798 64.595 76.5655 63.4061C77.8649 62.6257 79.1803 61.8705 80.4704 61.0764C82.1439 60.0458 82.7499 58.446 82.1783 56.573C81.7353 55.1247 81.2532 53.6878 80.7941 52.2441C80.0847 50.0131 80.3349 47.8992 81.5815 45.9068C82.339 44.6949 83.0874 43.4738 83.8312 42.2528C84.9813 40.3591 84.7747 38.7134 83.193 37.1366C82.199 36.1473 81.1958 35.1649 80.1926 34.1848C78.3883 32.4267 77.6674 30.2921 77.9177 27.7971C78.0462 26.4865 78.1174 25.169 78.1908 24.1866Z" fill="#4B8D32"/>
<path d="M11.3402 45.2068C11.3586 39.7142 12.1758 35.5597 13.808 31.5636C14.111 30.8223 14.5656 30.2829 15.4287 30.2461C16.7671 30.1865 17.4649 31.364 17.0448 32.7618C16.3424 35.1099 15.454 37.4487 15.128 39.8588C13.7346 50.1371 16.9645 58.8568 24.625 65.8138C30.2699 70.9415 37.0442 73.3286 44.668 73.2115C49.537 73.1381 54.0961 71.8389 58.3452 69.4564C58.7148 69.2499 59.1051 69.0295 59.5114 68.9423C60.2759 68.7747 61.0288 69.204 61.3364 69.9086C61.6624 70.6523 61.4994 71.3133 60.9255 71.8642C60.7442 72.0386 60.5123 72.1694 60.2896 72.298C49.1743 78.7982 34.7899 77.988 24.5354 70.1932C15.9062 63.6333 11.6341 54.824 11.3402 45.2068Z" fill="#4B8D32"/>
<path d="M43.9517 11.3491C59.8558 11.3055 73.5032 22.8278 76.1707 38.5367C77.2129 44.6766 76.5242 50.6214 74.2102 56.3894C73.7764 57.4705 73.0349 57.9341 72.1166 57.739C71.0239 57.5072 70.5969 56.4514 70.9596 55.228C71.6483 52.9052 72.5276 50.5938 72.8558 48.2136C74.2653 38.0065 71.141 29.2752 63.5425 22.355C54.0547 13.7155 40.7241 12.3843 29.4779 18.6412C29.005 18.9029 28.3967 19.0796 27.8687 19.0406C27.1203 18.9855 26.6543 18.4117 26.528 17.6703C26.388 16.8348 26.7966 16.2449 27.5037 15.8295C29.8842 14.4317 32.4025 13.3483 35.0539 12.5954C37.9602 11.7691 40.9261 11.3307 43.9517 11.3491Z" fill="#4B8D32"/>
<path d="M32.6389 59.3847C32.6986 59.2378 32.8019 58.8798 32.981 58.563C38.192 49.3176 43.4077 40.0745 48.6325 30.8337C49.2339 29.771 50.1637 29.4428 51.0613 29.9271C51.9864 30.4252 52.2182 31.442 51.6076 32.5254C46.3943 41.7707 41.1763 51.0116 35.9538 60.2523C35.4235 61.1911 34.6637 61.5469 33.8419 61.2898C33.0912 61.0603 32.6183 60.3993 32.6389 59.3847Z" fill="#4B8D32"/>
<path d="M26.45 32.6126C26.4408 28.6119 29.6294 25.4031 33.6261 25.3916C37.6113 25.3802 40.8527 28.589 40.8733 32.5644C40.894 36.5123 37.6365 39.7853 33.6743 39.8014C29.6983 39.8152 26.4614 36.5926 26.45 32.6126ZM29.8888 32.5116C29.8613 34.6416 31.5256 36.3539 33.6375 36.3631C35.6921 36.3746 37.4115 34.6806 37.4368 32.6218C37.462 30.5606 35.7862 28.8552 33.7041 28.8277C31.6036 28.8001 29.9163 30.4275 29.8888 32.5116Z" fill="#4B8D32"/>
<path d="M54.3853 62.6188C50.4139 62.644 47.1518 59.4261 47.1266 55.4575C47.1013 51.5119 50.3381 48.2457 54.3141 48.209C58.2787 48.1723 61.5362 51.4018 61.5499 55.3841C61.5637 59.3847 58.3866 62.5935 54.3853 62.6188ZM58.1134 55.4254C58.1157 53.3413 56.4537 51.6588 54.3761 51.6428C52.2848 51.6267 50.5356 53.3757 50.5631 55.4552C50.5884 57.5279 52.2848 59.1896 54.3647 59.1805C56.4605 59.1713 58.1111 57.5164 58.1134 55.4254Z" fill="#4B8D32"/>
<path d="M67.5621 65.8528C67.5713 66.8352 66.8161 67.5927 65.8335 67.5881C64.8923 67.5835 64.1325 66.8375 64.121 65.9125C64.1118 64.9829 64.9428 64.1451 65.8726 64.1497C66.7977 64.1566 67.5553 64.9187 67.5621 65.8528Z" fill="#4B8D32"/>
<path d="M20.4355 22.1002C20.4538 21.1247 21.2343 20.3879 22.2192 20.4201C23.1581 20.4499 23.8972 21.2234 23.8743 22.1507C23.849 23.0849 22.9951 23.8951 22.0722 23.8584C21.1494 23.8171 20.4194 23.0344 20.4355 22.1002Z" fill="#4B8D32"/>
</svg>
