<svg width="92" height="79" viewBox="0 0 92 79" fill="none" xmlns="http://www.w3.org/2000/svg">
<path d="M0 39.4856C0.297645 37.6743 0.516079 35.846 0.909739 34.0541C3.78298 20.9627 14.8223 10.4174 27.933 8.27876C29.9614 7.94657 32.0401 7.92959 34.09 7.72106C34.4644 7.68227 34.8965 7.51011 35.1653 7.25066C37.1432 5.35691 39.0947 3.43649 41.0366 1.50637C42.4745 0.0757514 44.1235 -0.326761 46.0582 0.260034C51.1854 1.81674 55.8373 4.28273 60.0907 7.56588C61.8334 8.91163 62.5391 10.5726 62.3255 12.7597C62.0278 15.798 61.8142 18.8435 61.603 21.889C61.5766 22.2721 61.6942 22.7328 61.903 23.0553C65.6548 28.8651 67.4935 35.2325 67.4623 42.1625C67.4503 44.7934 67.4599 47.4243 67.4599 50.0552C67.4599 50.3801 67.4599 50.705 67.4599 51.0954C67.8967 51.0954 68.2232 51.0954 68.5496 51.0954C74.6874 51.0954 80.8251 51.093 86.9628 51.0954C90.1073 51.0978 91.9964 52.9989 91.9964 56.168C92.0012 62.0966 92.0012 68.0227 91.9964 73.9513C91.994 77.0138 90.1097 78.956 87.09 78.9754C86.2571 78.9803 85.3954 78.9706 84.5985 78.7669C82.599 78.2553 81.3004 76.4488 81.2596 74.2423C81.2308 72.7632 81.2548 71.2841 81.2548 69.7468C80.9643 69.7152 80.7363 69.6716 80.5059 69.6716C76.3748 69.6667 72.2414 69.6716 68.1104 69.6643C67.6567 69.6643 67.347 69.6958 67.2102 70.2657C65.9092 75.6656 61.9702 78.9536 56.543 78.9682C40.8254 79.0118 25.1054 79.0094 9.38783 78.9682C4.5823 78.956 1.13537 75.9663 0.146422 71.2065C0.122419 71.0925 0.0528072 70.9882 0.00479992 70.8767C-8.05679e-07 60.4187 0 49.9509 0 39.4856ZM24.5341 75.8426C24.6085 75.8499 24.8414 75.8839 25.0718 75.8839C35.5206 75.8863 45.9694 75.9081 56.4158 75.8766C61.1901 75.862 64.3706 72.5765 64.3778 67.7293C64.3946 59.1699 64.385 50.6129 64.3802 42.0534C64.3778 33.8262 61.6582 26.6367 56.0917 20.6427C47.2128 11.0818 33.7635 8.1163 21.8289 13.3029C11.8074 17.6578 5.71047 25.4365 3.58615 36.2752C2.6236 41.1805 3.17328 46.1658 3.08207 51.1148C3.08207 51.1633 3.13728 51.2142 3.18528 51.2967C3.40612 51.253 3.63655 51.19 3.86939 51.1681C6.40658 50.9184 8.45408 51.0906 9.8439 53.5978C12.7723 58.8765 16.817 63.0035 22.0354 65.9641C23.7036 66.9122 24.5173 68.3574 24.5293 70.2705C24.5437 72.1061 24.5341 73.9416 24.5341 75.8426ZM3.06047 62.8968C3.06047 65.1033 3.04846 67.3099 3.06287 69.5164C3.08687 73.0639 5.49684 75.7263 9.00137 75.8426C12.5875 75.9639 16.1809 75.8936 19.7718 75.8742C20.8808 75.8669 21.4185 75.2971 21.4473 74.1841C21.4785 73.0372 21.4089 71.8854 21.4713 70.7385C21.5313 69.6401 21.1256 68.949 20.1511 68.4156C17.0234 66.6988 14.203 64.5286 11.9274 61.7717C10.2136 59.6936 8.71813 57.4216 7.2395 55.1593C6.5578 54.1167 5.54244 54.0318 4.20304 54.2864C3.2645 54.4634 3.04366 55.283 3.05326 56.1874C3.07727 58.4231 3.06047 60.6587 3.06047 62.8968ZM75.1194 54.2379C75.1194 55.1933 75.1218 56.0395 75.1194 56.8858C75.1122 58.1127 74.5529 58.8353 73.6096 58.845C72.6663 58.8547 72.0686 58.1175 72.059 56.9149C72.0518 56.0225 72.0566 55.1278 72.0566 54.2428C70.4627 54.2428 69.0081 54.2428 67.5175 54.2428C67.5175 58.36 67.5175 62.4264 67.5175 66.5073C72.1118 66.5073 76.6437 66.5073 81.1779 66.5073C81.1779 62.3779 81.1779 58.3139 81.1779 54.2379C79.1472 54.2379 77.1837 54.2379 75.1194 54.2379ZM39.1764 8.19874C46.6823 9.43295 53.2689 12.9828 58.7225 18.9041C58.9194 16.4648 59.1474 14.1831 59.253 11.8965C59.2746 11.4043 58.9914 10.7254 58.6169 10.415C54.5723 7.0591 50.0188 4.64645 44.9804 3.20613C44.5364 3.08004 43.7971 3.17946 43.5018 3.48013C41.9848 5.01986 40.571 6.65901 39.1764 8.19874ZM84.3128 54.2015C84.3128 54.6865 84.3128 55.0454 84.3128 55.4042C84.3128 60.6611 84.3128 65.9205 84.3128 71.1774C84.3128 72.1133 84.3008 73.0517 84.3152 73.9877C84.3368 75.3043 84.8793 75.8475 86.1755 75.8863C86.4444 75.8936 86.7132 75.8911 86.982 75.8863C88.403 75.8596 88.9263 75.3334 88.9287 73.898C88.9335 69.5479 88.9311 65.1955 88.9311 60.8454C88.9311 59.2135 88.9431 57.5817 88.9263 55.9498C88.9167 54.9265 88.3862 54.2622 87.4765 54.2137C86.4684 54.1579 85.453 54.2015 84.3128 54.2015Z" fill="#4B8D32"/>
<path d="M50.6045 43.4016C50.5589 52.8485 42.9713 60.4308 33.6195 60.3774C24.2725 60.3241 16.8194 52.6666 16.8794 43.1761C16.937 33.8504 24.5941 26.2172 33.7923 26.3166C43.1346 26.4185 50.6477 34.0541 50.6045 43.4016ZM33.7227 29.4252C26.1112 29.4301 19.9494 35.6399 19.9398 43.3143C19.9302 51.0493 26.0896 57.2883 33.7323 57.2834C41.3679 57.281 47.5656 50.9984 47.5272 43.3022C47.4888 35.6132 41.3319 29.4228 33.7227 29.4252Z" fill="#4B8D32"/>
<path d="M6.12813 41.229C6.39217 28.7851 15.0503 17.7839 26.6969 14.8402C27.8106 14.5589 28.6436 14.9226 28.8956 15.8028C29.1668 16.7485 28.6436 17.5074 27.5082 17.8469C17.7603 20.7518 11.7978 27.2356 9.63507 37.2524C9.34462 38.6005 9.29421 40.0069 9.203 41.3915C9.11899 42.6766 8.66292 43.3167 7.68117 43.3264C6.66822 43.3361 6.12093 42.6329 6.12813 41.3333C6.12813 41.2145 6.12813 41.0932 6.12813 41.229Z" fill="#4B8D32"/>
<path d="M61.3077 66.6018C61.3029 70.0329 58.6001 72.7632 55.2036 72.768C51.8263 72.7729 49.0755 70.0183 49.0611 66.6188C49.0467 63.195 51.8551 60.3605 55.2324 60.3847C58.6049 60.409 61.3125 63.1805 61.3077 66.6018ZM58.2401 66.5485C58.2257 64.8366 56.8094 63.4399 55.134 63.4836C53.4849 63.5272 52.1287 64.919 52.1239 66.58C52.1191 68.2943 53.4969 69.674 55.2084 69.6667C56.9319 69.6595 58.2569 68.2967 58.2401 66.5485Z" fill="#4B8D32"/>
<path d="M35.2374 15.4852C35.2326 16.3654 34.5677 17.0176 33.6963 17.0031C32.885 16.9885 32.2177 16.3242 32.1961 15.5119C32.1745 14.6826 32.8898 13.9358 33.7155 13.9261C34.5509 13.9164 35.2422 14.6244 35.2374 15.4852Z" fill="#4B8D32"/>
</svg>
