<svg width="76" height="68" viewBox="0 0 76 68" fill="none" xmlns="http://www.w3.org/2000/svg">
<path d="M0 38.7572C0.377031 36.7622 1.62391 35.3416 3.01477 33.9552C13.7587 23.2529 24.4773 12.5267 35.1841 1.78875C36.3954 0.574525 37.7625 -0.0073518 39.4829 7.00952e-05C46.6569 0.0356952 53.8309 0.0163982 61.0048 0.0208513C65.2902 0.0223357 67.9829 2.72836 67.9844 7.0286C67.9844 8.58275 67.9844 10.1384 67.9844 11.8068C68.6152 11.8068 69.2001 11.8395 69.779 11.8009C72.58 11.6183 75.001 12.5134 76 16.0462C76 16.591 76 17.1343 76 17.679C75.8976 17.9789 75.81 18.2846 75.6898 18.5786C74.8882 20.5379 73.4588 21.7002 71.3287 21.859C70.251 21.9392 69.1615 21.8724 67.9784 21.8724C67.9784 22.2272 67.9784 22.4884 67.9784 22.7497C67.9784 24.7788 67.9725 26.8065 67.977 28.8356C67.9799 30.2665 67.496 31.4912 66.4748 32.5035C65.2101 33.7578 63.9587 35.0255 62.6941 36.2798C61.8999 37.0665 61.0702 37.1392 60.4111 36.498C59.7461 35.8508 59.8218 34.9691 60.6248 34.1616C61.8287 32.9503 63.028 31.7361 64.2497 30.5441C64.7796 30.0261 65.0216 29.4338 65.0156 28.6916C64.9963 26.5393 65.0082 24.3869 65.0067 22.2346C65.0067 22.1618 64.9859 22.0891 64.9622 21.9347C64.7113 21.9229 64.4486 21.9006 64.1873 21.9006C62.3809 21.8976 60.5744 21.8739 58.7694 21.905C56.5013 21.9436 54.8195 21.0278 53.7403 19.006C53.6245 18.7878 53.3232 18.6171 53.0709 18.5325C50.4509 17.6582 48.9235 15.2224 49.2872 12.4585C49.6182 9.94689 51.8507 7.94892 54.4335 7.85243C57.1752 7.75001 59.4373 9.49564 60.037 12.1749C60.5284 14.3763 59.5249 16.726 57.5745 17.9388C57.3666 18.0679 57.1559 18.1896 56.8055 18.4004C57.2672 18.5934 57.613 18.8591 57.9648 18.865C60.2834 18.9021 62.605 18.8843 65.0141 18.8843C65.0141 18.6216 65.0141 18.3826 65.0141 18.1421C65.0156 14.3822 65.0186 10.6208 65.0171 6.86087C65.0156 4.41461 63.5936 2.99109 61.1444 2.98961C53.8962 2.98515 46.6465 2.99258 39.3983 2.97328C38.57 2.97031 37.9406 3.2375 37.3587 3.81938C26.3298 14.8661 15.2876 25.9025 4.25125 36.9418C2.5175 38.6755 2.52344 40.6616 4.26758 42.4058C11.3852 49.5278 18.5057 56.6469 25.6277 63.7645C27.3199 65.4552 29.3416 65.4448 31.0427 63.7437C37.8842 56.9052 44.7227 50.0637 51.5627 43.2252C52.5721 42.2158 53.4063 42.0866 54.1114 42.8259C54.766 43.5117 54.6102 44.3696 53.6542 45.3256C46.8498 52.1314 40.0455 58.9373 33.2396 65.7402C30.2293 68.749 26.4115 68.7535 23.4086 65.7521C16.6369 58.9833 9.88148 52.1997 3.0875 45.4532C1.6625 44.0386 0.362187 42.5973 0.00148413 40.5384C-2.49114e-07 39.9447 0 39.3509 0 38.7572ZM68.0437 14.8617C68.0437 16.211 68.0437 17.5514 68.0437 18.8873C69.1659 18.8873 70.2302 18.9452 71.2841 18.8695C72.2549 18.7997 72.9734 17.9343 73.0238 16.9591C73.0728 15.9957 72.4241 14.9834 71.4845 14.8884C70.346 14.7726 69.1852 14.8617 68.0437 14.8617ZM56.8145 12.0265C56.0678 10.9845 55.1327 10.6119 54.0624 10.8717C53.1317 11.0973 52.3643 11.9463 52.2337 12.8964C52.0838 13.9918 52.4801 14.826 53.4702 15.4094C54.0402 13.781 55.1312 12.644 56.8145 12.0265Z" fill="#4B8D32"/>
<path d="M28.3798 56.1363C36.9238 47.5907 45.5748 38.9398 54.1945 30.32C48.7172 24.8471 43.173 19.3074 37.5829 13.7231C37.4523 13.8449 37.2563 14.0156 37.0723 14.1996C32.5939 18.6765 28.1155 23.1534 23.6372 27.6318C22.6338 28.6352 21.7847 28.794 21.0841 28.1112C20.3656 27.4106 20.5066 26.563 21.5071 25.5625C26.4041 20.6656 31.301 15.7671 36.1995 10.8702C37.3127 9.75689 37.9718 9.75392 39.0762 10.8568C45.1116 16.8908 51.1456 22.9248 57.1796 28.9603C58.2202 30.0008 58.2187 30.6881 57.1766 31.7316C48.0121 40.8977 38.8476 50.0637 29.6816 59.2268C28.6737 60.2332 27.9686 60.2376 26.9696 59.2386C20.8985 53.1705 14.8289 47.1009 8.76078 41.0313C7.74695 40.0174 7.74547 39.3302 8.75187 38.3193C9.99133 37.0754 11.2293 35.83 12.4777 34.595C13.2406 33.8409 14.1372 33.7816 14.7651 34.4184C15.3855 35.0492 15.3128 35.9473 14.5573 36.7102C13.6013 37.6751 12.6305 38.6251 11.7444 39.5053C17.3316 45.0895 22.8787 50.6367 28.3798 56.1363Z" fill="#4B8D32"/>
<path d="M34.5147 23.1326C36.9416 23.1415 38.898 25.1128 38.8758 27.5279C38.855 29.9088 36.9016 31.8548 34.5162 31.8697C32.107 31.8845 30.1313 29.9133 30.1284 27.4922C30.1284 25.0608 32.0759 23.1237 34.5147 23.1326ZM34.3989 28.8861C35.1619 28.944 35.8506 28.3428 35.9026 27.5724C35.9516 26.8391 35.3741 26.1741 34.6349 26.1133C33.8348 26.0465 33.1669 26.5972 33.1045 27.3735C33.0407 28.1483 33.6226 28.8267 34.3989 28.8861Z" fill="#4B8D32"/>
<path d="M42.1102 32.8479C42.0984 33.5574 41.656 34.074 40.7802 34.3204C38.147 35.0641 35.5092 35.7944 32.873 36.5277C30.5455 37.1748 28.2165 37.8205 25.8875 38.4662C25.1987 38.6577 24.6065 38.5019 24.1834 37.9096C23.8198 37.4005 23.7663 36.8216 24.1404 36.3198C24.3601 36.0259 24.7134 35.7424 25.0607 35.6445C30.112 34.2105 35.1708 32.7989 40.234 31.4051C41.2107 31.1364 42.1266 31.8801 42.1102 32.8479Z" fill="#4B8D32"/>
<path d="M29.3906 42.5201C29.3921 40.0931 31.35 38.1471 33.7814 38.1545C36.2039 38.1619 38.1603 40.1391 38.1395 42.5587C38.1188 44.9381 36.1594 46.8901 33.7799 46.902C31.3708 46.9124 29.3891 44.9337 29.3906 42.5201ZM35.1663 42.4859C35.1455 41.7096 34.4924 41.101 33.7087 41.1263C32.9294 41.153 32.3237 41.8106 32.3623 42.5899C32.3995 43.3276 33.0437 43.9392 33.7755 43.9288C34.5355 43.9199 35.1871 43.243 35.1663 42.4859Z" fill="#4B8D32"/>
<path d="M55.7798 39.6523C55.7754 38.8329 56.4033 38.1813 57.2137 38.1664C58.0405 38.1501 58.7367 38.8477 58.7189 39.6716C58.7011 40.4672 58.0242 41.1307 57.2316 41.1248C56.4255 41.1203 55.7843 40.4702 55.7798 39.6523Z" fill="#4B8D32"/>
<path d="M17.8882 32.7128C17.0688 32.7009 16.4469 32.0656 16.4498 31.2418C16.4528 30.4283 17.0955 29.7797 17.903 29.7737C18.7254 29.7678 19.4245 30.4803 19.3963 31.2922C19.3666 32.0968 18.7016 32.7232 17.8882 32.7128Z" fill="#4B8D32"/>
</svg>
