<svg width="96" height="61" viewBox="0 0 96 61" fill="none" xmlns="http://www.w3.org/2000/svg">
<path d="M0 42.9338C0.415755 42.173 1.0444 41.8542 1.91598 41.8567C6.44671 41.8768 10.9749 41.8667 15.5057 41.8667C15.661 41.8667 15.8187 41.8642 15.974 41.8843C16.8631 41.9922 17.4517 42.6225 17.4267 43.431C17.4016 44.247 16.798 44.8497 15.8839 44.8672C14.1031 44.8974 12.3224 44.8798 10.5417 44.8823C10.206 44.8823 9.86793 44.8823 9.4672 44.8823C9.4672 46.0574 9.4672 47.1321 9.4672 48.3348C10.5266 48.3348 11.5485 48.3348 12.5703 48.3348C14.1958 48.3348 15.8187 48.3147 17.4442 48.3473C17.9626 48.3574 18.1931 48.1766 18.4109 47.7045C20.1416 43.9683 23.0819 41.8968 27.1844 41.9119C31.2393 41.927 34.1646 43.9683 35.8777 47.6794C36.0881 48.1339 36.3035 48.3473 36.8369 48.3473C46.8025 48.3298 56.7681 48.3348 66.7362 48.3323C66.889 48.3323 67.0393 48.3097 67.3223 48.2846C67.3223 47.923 67.3223 47.5916 67.3223 47.2601C67.3223 43.9658 67.2872 40.669 67.3549 37.3747C67.3674 36.7972 67.6704 36.0439 68.1012 35.6974C69.0304 34.9492 70.3027 35.7728 70.3178 37.0784C70.3453 39.3684 70.3253 41.6608 70.3253 43.9508C70.3253 45.1434 70.3077 46.3361 70.3378 47.5288C70.3453 47.7924 70.5181 48.0536 70.6133 48.3147C70.8412 48.1113 71.1643 47.9531 71.282 47.6995C72.5994 44.8522 74.7208 42.9489 77.7613 42.1781C82.2369 41.0431 86.7752 43.2527 88.6936 47.5012C88.9817 48.1414 89.2997 48.4026 90.0085 48.3524C90.9653 48.2846 91.9295 48.3348 92.9388 48.3348C92.9388 46.08 92.9388 43.9332 92.9388 41.6508C92.2927 41.6508 91.674 41.6759 91.0604 41.6458C88.5759 41.5303 86.6674 39.5843 86.5998 37.086C86.5698 36.0188 86.5748 34.9517 86.5948 33.8846C86.6149 32.7697 87.1583 32.2299 88.2904 32.2123C89.7205 32.1897 91.1481 32.2073 92.5907 32.2073C92.3077 30.535 90.5871 28.8904 88.7137 28.8628C82.6276 28.7774 76.5416 28.8301 70.3253 28.8301C70.3253 29.3901 70.3428 29.9148 70.3203 30.4346C70.2827 31.3561 69.7242 31.9637 68.9077 32.0039C68.0611 32.0466 67.41 31.4264 67.3323 30.4848C67.3098 30.2036 67.3248 29.9199 67.3248 29.6386C67.3248 21.1644 67.3248 12.6926 67.3248 4.21831C67.3248 3.85172 67.3248 3.48261 67.3248 3.0658C47.9947 3.0658 28.7673 3.0658 9.40709 3.0658C9.40709 3.46755 9.40709 3.83163 9.40709 4.19571C9.40709 12.67 9.40709 21.1418 9.40709 29.616C9.40709 29.8973 9.41711 30.181 9.39958 30.4622C9.34698 31.3712 8.77344 31.9813 7.95946 32.0039C7.1555 32.0265 6.51433 31.4264 6.41916 30.5426C6.38911 30.2639 6.40413 29.9776 6.40413 29.6964C6.40413 21.0664 6.40413 12.4365 6.40413 3.80652C6.40413 1.16004 7.54871 0 10.1534 0C28.9601 0 47.7693 0 66.576 0C69.2132 0 70.3278 1.12238 70.3303 3.77891C70.3303 4.62006 70.3303 5.46121 70.3303 6.3827C70.741 6.40028 71.0716 6.4279 71.4047 6.43041C74.6231 6.43292 77.8414 6.49318 81.0573 6.41785C85.1447 6.31993 88.616 9.17984 87.9047 14.6436C87.8396 15.1432 87.3011 15.5801 86.8703 16.2053C87.5916 19.1029 88.358 22.234 89.1695 25.3525C89.2346 25.6036 89.5752 25.8874 89.8407 25.9627C93.6677 27.0147 95.9794 29.9751 95.9919 33.9348C96.0069 39.0821 95.9969 44.227 95.9944 49.3743C95.9944 50.8281 95.481 51.3328 94.0058 51.3403C92.5757 51.3479 91.1431 51.3428 89.6303 51.3428C89.465 54.5819 88.2453 57.2309 85.6656 59.1442C83.8398 60.4976 81.7711 61.1002 79.5095 60.9771C75.6199 60.7662 70.8963 57.841 70.4831 51.4207C59.2627 51.4207 48.0398 51.4207 36.7167 51.4207C36.5564 54.7325 35.229 57.4544 32.4565 59.3601C30.6131 60.6281 28.5469 61.1629 26.3278 60.9571C22.0576 60.5628 17.8975 57.246 17.597 51.3855C17.3114 51.373 17.0134 51.3453 16.7154 51.3453C14.9647 51.3403 13.2115 51.2675 11.4683 51.3579C7.53118 51.5613 6.13114 50.5067 6.40413 46.2106C6.42918 45.8088 6.40664 45.4021 6.40664 44.8773C4.90391 44.8773 3.47381 44.8371 2.04622 44.8923C1.14708 44.9275 0.468351 44.6588 0.00751334 43.8729C-3.05563e-07 43.5616 0 43.2477 0 42.9338ZM70.3929 15.9241C70.3929 19.241 70.3929 22.475 70.3929 25.7141C75.6499 25.7141 80.8394 25.7141 86.129 25.7141C85.3375 22.5328 84.5787 19.4369 83.7747 16.3535C83.7246 16.1626 83.3289 15.9417 83.091 15.9417C78.9084 15.9166 74.7283 15.9241 70.3929 15.9241ZM80.0479 57.9842C83.6044 57.9892 86.5522 55.0514 86.5798 51.4734C86.6073 47.9104 83.6921 44.9476 80.1156 44.8999C76.5315 44.8547 73.5261 47.8502 73.5361 51.4533C73.5461 55.0238 76.494 57.9791 80.0479 57.9842ZM27.1493 57.9842C30.7108 57.9867 33.6336 55.064 33.6662 51.4659C33.6962 47.8627 30.7058 44.8647 27.1118 44.8999C23.5378 44.9325 20.63 47.8803 20.64 51.4583C20.6475 55.0313 23.5904 57.9817 27.1493 57.9842ZM70.3779 12.8206C75.2467 12.8206 80.063 12.8206 84.8742 12.8206C84.9568 10.8873 83.5368 9.48115 81.4855 9.46859C77.9917 9.44599 74.4953 9.46107 71.0015 9.46609C70.7936 9.46609 70.5882 9.52383 70.3754 9.55648C70.3779 10.6638 70.3779 11.7158 70.3779 12.8206ZM89.6654 35.2681C89.3348 38.2184 90.1212 38.9917 92.9263 38.5297C92.9263 37.4601 92.9263 36.3829 92.9263 35.2681C91.8218 35.2681 90.7749 35.2681 89.6654 35.2681Z" fill="#4B8D32"/>
<path d="M36.6992 28.4711C38.4148 26.736 39.9726 25.1567 41.5355 23.5849C44.2955 20.8078 47.058 18.0358 49.8205 15.2637C49.9758 15.1081 50.1261 14.9449 50.3039 14.8193C50.9901 14.3397 51.6789 14.3799 52.2549 14.9725C52.836 15.5676 52.841 16.2606 52.3651 16.941C52.2224 17.1444 52.032 17.3151 51.8567 17.4909C47.3285 22.0407 42.8003 26.5904 38.2695 31.1376C37.0799 32.3303 36.4663 32.3303 35.2866 31.1452C32.8547 28.7046 30.4102 26.279 28.0134 23.8058C27.6527 23.4342 27.2921 22.8341 27.3246 22.3671C27.3547 21.9151 27.808 21.3677 28.2263 21.0966C28.8624 20.6848 29.4811 21.0413 29.9795 21.541C31.9681 23.5372 33.9592 25.5308 35.9428 27.5345C36.1832 27.7806 36.3761 28.0693 36.6992 28.4711Z" fill="#4B8D32"/>
<path d="M51.1855 44.8798C47.594 44.8798 43.9999 44.8923 40.4084 44.8647C39.9376 44.8597 39.3315 44.7768 39.0309 44.4805C38.7103 44.1642 38.4799 43.5113 38.5726 43.0845C38.6652 42.6601 39.1561 42.2534 39.5694 41.9897C39.8499 41.8115 40.2957 41.8717 40.6664 41.8717C47.6941 41.8667 54.7244 41.8667 61.7522 41.8692C61.9701 41.8692 62.1905 41.8592 62.4084 41.8818C63.3125 41.9722 63.9111 42.5723 63.9186 43.3758C63.9261 44.2244 63.2975 44.8622 62.3383 44.8697C59.3704 44.8923 56.4025 44.8798 53.4346 44.8823C52.6857 44.8798 51.9369 44.8798 51.1855 44.8798Z" fill="#4B8D32"/>
<path d="M14.2434 38.4368C11.1828 38.4368 8.12476 38.4393 5.0642 38.4343C3.88205 38.4318 3.19831 37.8694 3.20583 36.9303C3.21334 36.0113 3.92463 35.4263 5.08925 35.4263C11.2705 35.4212 17.4517 35.4263 23.6329 35.4212C24.3417 35.4212 25.0154 35.592 25.2459 36.2875C25.3936 36.7319 25.3886 37.445 25.1231 37.7513C24.795 38.133 24.1313 38.3966 23.6079 38.4067C20.4872 38.4669 17.3666 38.4368 14.2434 38.4368Z" fill="#4B8D32"/>
<path d="M80.0579 48.3398C81.7861 48.3423 83.1636 49.7208 83.1586 51.4433C83.1536 53.1457 81.7385 54.5693 80.0504 54.5668C78.3574 54.5643 76.9548 53.1457 76.9548 51.4357C76.9548 49.7082 78.3298 48.3373 80.0579 48.3398Z" fill="#4B8D32"/>
<path d="M30.2349 51.4282C30.2399 53.1582 28.8649 54.5618 27.1618 54.5693C25.4838 54.5769 24.0487 53.1457 24.0362 51.4533C24.0261 49.7459 25.4137 48.3498 27.1343 48.3423C28.8725 48.3323 30.2299 49.6856 30.2349 51.4282Z" fill="#4B8D32"/>
</svg>
